<svg xmlns="http://www.w3.org/2000/svg" version="1.1" viewBox="0 0 200 200" width="75">

  <path class="color" fill="#ff5050" d="m 38.971975,55.142123 c -9.05309,0 -17.56251,3.52331 -23.96335,9.92415 -13.21017,13.21318 -13.21017,34.71051 0,47.923687 l 50.04129,50.04128 c 6.40083,6.40084 14.91025,9.92716 23.96334,9.92716 9.05008,0 17.559505,-3.52632 23.960335,-9.92716 13.21319,-13.21018 13.21319,-34.71051 0,-47.92369 L 62.932315,65.066273 c -6.40084,-6.40084 -14.91026,-9.92415 -23.96034,-9.92415 m 50.04128,122.916517 c -10.41375,0 -20.20574,-4.05496 -27.57076,-11.41998 l -50.04128,-50.04128 c -15.20162,-15.20162 -15.20162,-39.933897 0,-55.135517 15.20161,-15.20462 39.9369,-15.20462 55.13852,-0.003 l 50.041275,50.041277 c 15.20162,15.20161 15.20162,39.9369 0,55.13852 -7.36502,7.36502 -17.154005,11.41998 -27.567755,11.41998"></path>
  <path class="color" fill="#ff5050" d="m 38.971975,125.46603 c -9.32642,0 -18.64984,-3.55636 -25.76555,-10.67207 -14.22843,-14.23143 -14.22843,-37.299677 0,-51.531097 l 50.04128,-50.041284 c 14.22842,-14.228424 37.299685,-14.228424 51.531095,0 14.22843,14.231427 14.22843,37.30268 -0.003,51.531104 L 64.737525,114.79396 c -7.11571,7.11271 -16.44213,10.67207 -25.76555,10.67207"></path>
  <path class="color" fill="#ff5050" d="m 89.012255,175.50762 c -9.32642,0 -18.64984,-3.55636 -25.76555,-10.67207 l -50.04128,-50.04128 c -14.22843,-14.23143 -14.22843,-37.299677 0,-51.531097 14.23142,-14.228428 37.30268,-14.228428 51.5311,0 L 114.7778,113.30445 c 14.22843,14.22842 14.22843,37.29967 0,51.5311 -7.11571,7.11271 -16.442125,10.67207 -25.765545,10.67207"></path>
  <path class="color" fill="#ff5050" d="m 89.012255,5.116466 c -8.67763,0 -17.35525,3.304046 -23.96335,9.909135 l -50.04128,50.041282 c -13.21017,13.21318 -13.21017,34.7105 0.003,47.923687 6.40084,6.40083 14.91026,9.92415 23.96034,9.92415 9.05309,0 17.56251,-3.52332 23.96334,-9.92415 L 112.9756,62.949283 c 13.21017,-13.213176 13.21017,-34.710501 0,-47.923682 C 106.3675,8.420512 97.689875,5.116466 89.012245,5.116466 M 38.970975,128.01797 c -10.41375,0 -20.20574,-4.05797 -27.56776,-11.41999 -15.20162,-15.20161 -15.20162,-39.936897 0,-55.138517 l 50.04128,-50.04128 c 15.20162,-15.201616 39.933905,-15.201616 55.138525,0 15.19862,15.201616 15.19862,39.936907 -0.003,55.13852 L 66.541735,116.59798 c -7.36502,7.36202 -17.15701,11.41999 -27.57076,11.41999"></path>
  <path id="path594" fill="#fff" d="m 125.4493,38.988343 c 0,-20.124645 -16.31297,-36.437621 -36.437615,-36.437621 -20.12465,0 -36.43762,16.312976 -36.43762,36.437621 0,20.12464 16.31297,36.43762 36.43762,36.43762 20.124645,0 36.437615,-16.31298 36.437615,-36.43762"></path>
  <path class="color" fill="#ff5050" d="m 89.012255,5.100246 c -18.68588,0 -33.8875,15.201616 -33.8875,33.887499 0,18.685878 15.20162,33.887498 33.8875,33.887498 18.685875,0 33.887495,-15.20162 33.887495,-33.887498 0,-18.685883 -15.20162,-33.887499 -33.887495,-33.887499 m 0,72.875247 c -21.49733,0 -38.98774,-17.49042 -38.98774,-38.987748 C 50.024515,17.490419 67.514925,0 89.012255,0 110.50958,0 128,17.490419 128,38.987745 128,60.485073 110.50959,77.975493 89.012255,77.975493"></path>
  <path id="path602" fill="#fff" d="m 125.4493,139.06909 c 0,20.12464 -16.31297,36.43762 -36.437615,36.43762 -20.12465,0 -36.43762,-16.31298 -36.43762,-36.43762 0,-20.12464 16.31297,-36.43762 36.43762,-36.43762 20.124645,0 36.437615,16.31298 36.437615,36.43762"></path>
  <path class="color" fill="#ff5050" d="m 89.012255,105.18219 c -18.68588,0 -33.8875,15.20162 -33.8875,33.8875 0,18.68588 15.20162,33.8875 33.8875,33.8875 18.685875,0 33.887495,-15.20162 33.887495,-33.8875 0,-18.68588 -15.20162,-33.8875 -33.887495,-33.8875 m 0,72.87524 c -21.49733,0 -38.98774,-17.49042 -38.98774,-38.98774 0,-21.49733 17.49041,-38.98775 38.98774,-38.98775 21.497325,0 38.987745,17.49042 38.987745,38.98775 0,21.49732 -17.49041,38.98774 -38.987745,38.98774"></path>
</svg>