<svg xmlns="http://www.w3.org/2000/svg" version="1.1" viewBox="0 0 300 200" width='175'>
  <path class="color" d="M 246.60156 0.083984375 C 242.98076 -0.25445403 239.22576 0.44635693 235.80273 2.3222656 L 161.28516 43.15625 C 160.93852 43.341123 160.59853 43.536168 160.26758 43.740234 L 160.26172 43.744141 L 160.25586 43.748047 C 160.20416 43.780708 160.18073 43.797446 160.18164 43.796875 C 159.96182 43.934309 159.73952 44.076848 159.51758 44.228516 C 159.38184 44.320974 159.26819 44.405897 159.17188 44.474609 L 159.16992 44.476562 L 159.16797 44.476562 C 159.06063 44.553839 158.93759 44.640312 158.80273 44.742188 C 158.62483 44.876141 158.45881 45.008997 158.30078 45.136719 C 158.25438 45.173962 158.19045 45.222806 158.11133 45.289062 C 157.91056 45.455325 157.7189 45.624043 157.5332 45.791016 C 157.52178 45.80129 157.4938 45.824306 157.45117 45.863281 C 157.24109 46.054463 157.0387 46.249153 156.8418 46.445312 C 156.83151 46.455317 156.81944 46.465737 156.81055 46.474609 L 156.81055 46.476562 C 156.60574 46.681754 156.40753 46.890511 156.21484 47.101562 L 156.20898 47.107422 L 156.19727 47.119141 L 156.18555 47.132812 L 156.18164 47.138672 C 155.9937 47.346326 155.81032 47.556027 155.63477 47.767578 L 155.58203 47.832031 C 155.4157 48.034212 155.25435 48.239861 155.09961 48.445312 C 155.06707 48.487904 155.03257 48.532441 154.99609 48.582031 C 154.86208 48.763529 154.73197 48.948299 154.60547 49.132812 C 154.55189 49.21027 154.49836 49.289197 154.44531 49.369141 C 154.34095 49.526268 154.24221 49.681962 154.14648 49.835938 C 154.07491 49.950691 154.00154 50.068405 153.92773 50.193359 C 153.85649 50.313908 153.7871 50.434671 153.71875 50.556641 C 153.62914 50.715491 153.54016 50.876929 153.45312 51.042969 C 153.40669 51.13108 153.36446 51.214785 153.32422 51.294922 C 153.32396 51.29544 153.32448 51.296357 153.32422 51.296875 C 153.32384 51.297619 153.32264 51.298085 153.32227 51.298828 C 153.22124 51.498002 153.12254 51.70036 153.02734 51.90625 L 153.02734 51.908203 L 153.02539 51.912109 C 153.00113 51.965256 152.97747 52.01608 152.95508 52.066406 C 152.85292 52.293002 152.75613 52.522909 152.66211 52.755859 C 152.63545 52.818889 152.62156 52.853172 152.61914 52.859375 C 152.51656 53.117127 152.41973 53.378357 152.32812 53.644531 C 152.3253 53.652484 152.3211 53.66586 152.31641 53.679688 C 152.31554 53.682208 152.31532 53.684979 152.31445 53.6875 C 152.31302 53.691789 152.31211 53.692488 152.31055 53.697266 C 152.22214 53.955762 152.13823 54.218399 152.06055 54.482422 C 152.05589 54.497203 152.05966 54.482295 152.05664 54.492188 C 152.05513 54.497339 152.05424 54.502658 152.05273 54.507812 C 152.05145 54.512779 152.04152 54.546742 152.04688 54.529297 L 152.04492 54.539062 L 152.04102 54.548828 C 151.96536 54.810966 151.89422 55.078616 151.82812 55.351562 C 151.82662 55.357481 151.82754 55.355861 151.82617 55.361328 C 151.82568 55.363355 151.82471 55.36516 151.82422 55.367188 C 151.81133 55.419523 151.8018 55.460586 151.80078 55.464844 L 151.80078 55.466797 C 151.74255 55.713752 151.68669 55.966731 151.63672 56.226562 L 151.63672 56.228516 C 151.61886 56.322063 151.60753 56.396614 151.59766 56.451172 L 151.5957 56.451172 C 151.55934 56.653297 151.52258 56.865546 151.49023 57.089844 C 151.46613 57.253828 151.45101 57.400504 151.43555 57.525391 L 151.43555 57.527344 C 151.42002 57.654355 151.39898 57.799675 151.38281 57.964844 C 151.35708 58.226831 151.33895 58.483832 151.32422 58.736328 L 151.32422 58.738281 L 151.32422 58.740234 C 151.32457 58.733872 151.32132 58.790639 151.31836 58.855469 C 151.29837 59.241945 151.28878 59.629679 151.29297 60.019531 L 151.29297 138.24023 C 151.29297 148.6491 159.75677 157.11328 170.16602 157.11328 C 180.57492 157.11328 189.04102 148.64913 189.04102 138.24023 L 189.04102 70.990234 L 253.94141 35.425781 C 263.06947 30.423742 266.42585 18.931139 261.42383 9.8027344 L 261.07227 9.1621094 L 260.98242 9.1621094 C 257.78864 3.8666035 252.39035 0.62506624 246.60156 0.083984375 z M 246.38281 2.53125 C 251.62401 3.0172372 256.53216 6.0164447 259.25781 10.990234 C 263.61851 18.948268 260.71353 28.899083 252.75586 33.259766 L 186.57031 69.527344 L 186.57031 138.24023 C 186.57031 147.31452 179.24031 154.64453 170.16602 154.64453 C 161.09134 154.64453 153.76172 147.31455 153.76172 138.24023 L 153.76172 60 L 153.76172 59.994141 C 153.7581 59.657272 153.76579 59.319139 153.7832 58.982422 L 153.78516 58.966797 L 153.78516 58.951172 C 153.78441 58.978664 153.78727 58.948039 153.79102 58.880859 L 153.79102 58.875 C 153.80441 58.646274 153.82052 58.421691 153.8418 58.205078 C 153.85237 58.097047 153.86914 57.971821 153.88672 57.828125 L 153.88672 57.826172 C 153.90479 57.680051 153.91794 57.553305 153.93359 57.447266 L 153.93359 57.445312 L 153.93555 57.443359 C 153.96091 57.267506 153.99264 57.083588 154.02734 56.890625 L 154.02734 56.888672 C 154.04249 56.804823 154.05369 56.739682 154.0625 56.693359 L 154.0625 56.691406 C 154.10393 56.476116 154.15105 56.258115 154.20312 56.037109 L 154.20312 56.033203 C 154.21532 55.981817 154.22228 55.954745 154.2207 55.960938 L 154.22266 55.953125 L 154.22461 55.945312 C 154.28007 55.715292 154.34152 55.485847 154.4082 55.253906 L 154.41406 55.234375 C 154.41307 55.237207 154.42051 55.210336 154.41602 55.224609 L 154.41992 55.212891 L 154.42383 55.201172 C 154.49466 54.959155 154.57084 54.720012 154.65234 54.482422 L 154.6543 54.474609 L 154.6582 54.464844 C 154.65575 54.472323 154.65616 54.470274 154.66016 54.458984 L 154.66211 54.455078 L 154.66406 54.449219 C 154.74294 54.220032 154.82771 53.992115 154.91797 53.765625 L 154.91797 53.761719 L 154.91992 53.757812 C 154.9365 53.715336 154.94221 53.703001 154.93555 53.71875 L 154.93945 53.707031 L 154.94336 53.697266 C 155.02732 53.488507 155.11614 53.281917 155.20898 53.076172 L 155.21094 53.074219 L 155.21289 53.070312 C 155.23288 53.025378 155.25056 52.983023 155.26953 52.941406 L 155.27148 52.9375 C 155.35292 52.761525 155.43852 52.587143 155.52734 52.412109 L 155.52734 52.410156 L 155.5293 52.408203 C 155.56784 52.33143 155.60372 52.259643 155.63867 52.193359 L 155.64062 52.191406 L 155.64062 52.189453 C 155.71405 52.049371 155.79114 51.909268 155.87109 51.767578 L 155.87109 51.765625 L 155.87305 51.765625 C 155.9324 51.659701 155.99138 51.554991 156.05273 51.451172 L 156.05273 51.449219 C 156.11199 51.348894 156.17584 51.246992 156.24219 51.140625 L 156.24219 51.138672 C 156.3285 50.999842 156.41512 50.865113 156.50195 50.734375 C 156.54638 50.667419 156.59198 50.60065 156.63867 50.533203 L 156.64062 50.53125 L 156.64258 50.527344 C 156.75404 50.364763 156.86778 50.206686 156.98438 50.048828 L 156.98438 50.046875 L 156.98633 50.046875 C 157.01058 50.01391 157.03827 49.976849 157.06836 49.9375 L 157.07031 49.933594 L 157.07227 49.929688 C 157.20765 49.749934 157.34562 49.573448 157.48633 49.402344 L 157.48828 49.400391 L 157.53516 49.34375 L 157.53711 49.341797 C 157.69325 49.153696 157.85309 48.970451 158.01562 48.791016 L 157.99023 48.816406 C 157.9928 48.813729 158.01961 48.784591 158.03711 48.765625 C 158.20676 48.579799 158.3801 48.399561 158.55664 48.222656 L 158.55664 48.220703 C 158.56034 48.217033 158.56407 48.215203 158.56445 48.214844 L 158.57422 48.205078 L 158.58594 48.193359 C 158.76021 48.019745 158.93517 47.85131 159.11523 47.6875 L 159.11719 47.6875 L 159.11719 47.685547 C 159.12316 47.680082 159.14757 47.661119 159.18555 47.626953 C 159.35518 47.474421 159.52235 47.32737 159.69141 47.1875 L 159.69531 47.185547 L 159.69727 47.183594 C 159.73015 47.156055 159.78112 47.115587 159.84961 47.060547 L 159.85156 47.058594 L 159.85352 47.058594 C 160.00414 46.936858 160.14783 46.821156 160.28906 46.714844 L 160.28906 46.712891 L 160.29102 46.712891 C 160.37964 46.645938 160.48616 46.57022 160.60547 46.484375 L 160.61133 46.480469 C 160.72799 46.397164 160.8278 46.325573 160.91016 46.269531 L 160.91016 46.267578 L 160.91211 46.267578 C 161.09799 46.140552 161.29025 46.015657 161.49023 45.890625 C 161.5383 45.860582 161.55703 45.846777 161.56445 45.841797 L 161.57617 45.835938 C 161.86181 45.660111 162.15216 45.493327 162.44727 45.335938 L 162.45312 45.332031 L 236.98828 4.4882812 C 239.9724 2.8529044 243.2381 2.2396577 246.38281 2.53125 z " fill="#ff5050"></path>
  <path class="color" d="m 262.51072,18.873611 c 0,9.741605 -7.89728,17.638889 -17.63889,17.638889 -9.7416,0 -17.63889,-7.897284 -17.63889,-17.638889 0,-9.741605 7.89729,-17.638889 17.63889,-17.638889 9.74161,0 17.63889,7.897284 17.63889,17.638889" fill="#ff5050"></path>
  <path class="color" fill="#ff5050" d="m 244.87183,37.747222 c -10.40891,0 -18.87361,-8.464699 -18.87361,-18.873611 0,-10.4089117 8.4647,-18.873610695 18.87361,-18.873610695 10.40891,0 18.87361,8.464698995 18.87361,18.873610695 0,10.408912 -8.4647,18.873611 -18.87361,18.873611 z m 0,-2.469445 c 9.0743,0 16.40417,-7.329867 16.40417,-16.404166 0,-9.074299 -7.32987,-16.4041663 -16.40417,-16.4041663 -9.0743,0 -16.40416,7.3298673 -16.40416,16.4041663 0,9.074299 7.32986,16.404166 16.40416,16.404166 z"></path>
  <path d="m 116.19095,57.810752 c -0.004,-0.02399 -0.006,-0.04833 -0.01,-0.07232 -0.0342,-0.218723 -0.0748,-0.437092 -0.11712,-0.655814 -0.0155,-0.08043 -0.0289,-0.16122 -0.0455,-0.2413 -0.0303,-0.145698 -0.0663,-0.291042 -0.10054,-0.436386 -0.0356,-0.150989 -0.0691,-0.302684 -0.10866,-0.452262 -0.0194,-0.07373 -0.042,-0.146755 -0.0624,-0.220486 -0.0607,-0.219427 -0.12312,-0.438502 -0.19226,-0.654402 -0.006,-0.0187 -0.0127,-0.03739 -0.0187,-0.05574 -0.27234,-0.844197 -0.60642,-1.659467 -0.9973,-2.442634 -0.001,-0.0025 -0.002,-0.0053 -0.003,-0.0078 -0.003,-0.006 -0.007,-0.01199 -0.01,-0.01799 -0.12418,-0.248003 -0.25365,-0.493184 -0.38947,-0.734131 -0.0282,-0.0508 -0.0575,-0.100542 -0.0864,-0.150636 -0.10901,-0.190147 -0.22049,-0.378531 -0.33655,-0.564092 -0.0593,-0.0956 -0.12065,-0.189441 -0.18168,-0.28328 -0.0864,-0.132645 -0.17357,-0.264584 -0.26317,-0.394406 -0.0928,-0.134761 -0.18803,-0.267758 -0.28434,-0.399344 -0.061,-0.08361 -0.12242,-0.166511 -0.18451,-0.249061 -0.12523,-0.1651 -0.25329,-0.327378 -0.38346,-0.487539 -0.0378,-0.04586 -0.0752,-0.09172 -0.11325,-0.137583 -0.15381,-0.184856 -0.31044,-0.366184 -0.47095,-0.543631 -0.0198,-0.02187 -0.0395,-0.04339 -0.0589,-0.06491 -0.17639,-0.19297 -0.35595,-0.381706 -0.53975,-0.565856 -0.01,-0.0099 -0.0201,-0.02011 -0.03,-0.02999 -0.19015,-0.189441 -0.38383,-0.37465 -0.58174,-0.554214 -0.0113,-0.01094 -0.0233,-0.02117 -0.0349,-0.0314 -0.19332,-0.17533 -0.39017,-0.346075 -0.59055,-0.511528 -0.0254,-0.02152 -0.0511,-0.04233 -0.0769,-0.06279 -0.18485,-0.151342 -0.37218,-0.299156 -0.56268,-0.442383 -0.0519,-0.03916 -0.10477,-0.07726 -0.15734,-0.116064 -0.16439,-0.12065 -0.32984,-0.239536 -0.49776,-0.353836 -0.0889,-0.06103 -0.17886,-0.119592 -0.26882,-0.178859 -0.1337,-0.08784 -0.26811,-0.174978 -0.40428,-0.258939 -0.13053,-0.08114 -0.26282,-0.159102 -0.39547,-0.236361 -0.0984,-0.05715 -0.19685,-0.115005 -0.29633,-0.170391 -0.1718,-0.09596 -0.34608,-0.188031 -0.52176,-0.278695 -0.0639,-0.03245 -0.12735,-0.06597 -0.19191,-0.09807 -0.20673,-0.103717 -0.41663,-0.202142 -0.6283,-0.297744 -0.0363,-0.01658 -0.073,-0.03351 -0.10971,-0.04974 -0.23142,-0.102306 -0.46567,-0.199672 -0.70238,-0.292453 -0.0212,-0.0085 -0.042,-0.01658 -0.0631,-0.02505 -0.24271,-0.09384 -0.48824,-0.182386 -0.73625,-0.266347 -0.0201,-0.0067 -0.0402,-0.01376 -0.0607,-0.02046 -0.23988,-0.08008 -0.48224,-0.154517 -0.72672,-0.224014 -0.0353,-0.01023 -0.0705,-0.02046 -0.10618,-0.03034 -0.22331,-0.06244 -0.44838,-0.119945 -0.67522,-0.173567 -0.0653,-0.01552 -0.13088,-0.03034 -0.19614,-0.04516 -0.19439,-0.04339 -0.38947,-0.08396 -0.58597,-0.121356 -0.10901,-0.02046 -0.21837,-0.03986 -0.32808,-0.05856 -0.15311,-0.02575 -0.30692,-0.05045 -0.46179,-0.07232 -0.16439,-0.02364 -0.32914,-0.0441 -0.49424,-0.06315 -0.10372,-0.01164 -0.20743,-0.02364 -0.3115,-0.03351 -0.22649,-0.02187 -0.453322,-0.0388 -0.680864,-0.05186 -0.04939,-0.0028 -0.09807,-0.0063 -0.147461,-0.0085 -1.169105,-0.05821 -2.350205,-0.0014 -3.526719,0.178859 -0.0081,0.0011 -0.01623,0.0018 -0.02434,0.0032 -0.234597,0.03634 -0.469194,0.07973 -0.703791,0.125941 -0.06456,0.01235 -0.130175,0.02293 -0.194381,0.03634 -0.160867,0.03351 -0.32138,0.07267 -0.481542,0.111125 -0.136172,0.03246 -0.272697,0.06244 -0.407458,0.09772 -0.08714,0.02328 -0.173919,0.04974 -0.261055,0.07408 -0.206375,0.0575 -0.412045,0.116064 -0.615598,0.180975 -0.02928,0.0092 -0.05821,0.01976 -0.08749,0.02963 -0.833967,0.270227 -1.640417,0.601133 -2.415117,0.987425 -0.0032,0.0011 -0.0063,0.0025 -0.0095,0.0039 L 11.00673,84.450765 c -8.7192553,4.344459 -12.2653774,14.934847 -7.9209192,23.653745 3.0857472,6.19302 9.3221522,9.77618 15.8012692,9.77618 2.642658,0 5.326591,-0.59619 7.852833,-1.8549 L 81.108965,88.934924 V 138.2395 c 0,9.74196 7.89693,17.63889 17.638888,17.63889 9.741607,0 17.638887,-7.89693 17.638887,-17.63889 V 60.438241 c 0,-0.0039 -3.5e-4,-0.0074 -3.5e-4,-0.01129 0,-0.870303 -0.0639,-1.744133 -0.19544,-2.6162" style="fill:#ffffff;" id="path474"></path>
  <path class="color" fill="#ff5050" d="m 98.747743,157.11287 c -10.40921,0 -18.87361,-8.4644 -18.87361,-18.87361 V 90.929832 L 27.290264,117.13116 c -2.699388,1.34498 -5.574915,1.98437 -8.403279,1.98437 -6.934345,0 -13.6093447,-3.84346 -16.9064587,-10.46068 C -2.6615388,99.338679 1.13961,87.98786 10.45615,83.345799 l 79.898652,-39.812211 0.0248,-0.01103 c 0.0032,-0.0014 0.03931,-0.01977 0.120579,-0.04685 l -0.160542,0.06615 c 0.828023,-0.41288 1.690388,-0.766363 2.582444,-1.055577 9.88e-4,-3.19e-4 0.0018,-0.0011 0.0028,-0.0014 0.01433,-0.0051 0.04091,-0.01481 0.09922,-0.03307 0.225655,-0.07182 0.443781,-0.134078 0.652502,-0.192236 0.06844,-0.01912 0.159244,-0.04713 0.274229,-0.07786 l 0.0035,-7.05e-4 0.0028,-7.06e-4 c 0.166578,-0.04361 0.312118,-0.07566 0.434082,-0.104731 0.156511,-0.03758 0.328114,-0.07948 0.515386,-0.118511 0.101688,-0.02123 0.174172,-0.03216 0.214974,-0.03996 l -0.0069,7.06e-4 c 0.24171,-0.04762 0.490229,-0.09319 0.746208,-0.132981 0.0024,-3.53e-4 0.0045,-10e-4 0.0069,-0.0014 0.01665,-0.0024 0.02312,-0.0032 0.02687,-0.0035 1.260421,-0.193126 2.524938,-0.253793 3.775136,-0.191547 0.06746,0.0031 0.121396,0.007 0.156407,0.009 0.240983,0.01382 0.483303,0.03163 0.726923,0.05512 0.12084,0.01147 0.23182,0.0245 0.33279,0.03583 h 0.001 l 0.002,7.06e-4 c 0.17128,0.01976 0.34666,0.04113 0.52572,0.06683 l 0.003,7.06e-4 c 0.16918,0.02393 0.33231,0.04986 0.49058,0.07648 l 0.001,7.05e-4 h 0.001 c 0.11521,0.01964 0.23157,0.04004 0.34864,0.06201 l 0.001,7.06e-4 h 0.001 c 0.21017,0.04 0.41814,0.08352 0.62425,0.129535 h 0.002 l 0.003,7.06e-4 c 0.0639,0.0145 0.13287,0.02999 0.20671,0.04754 l 10e-4,7.06e-4 c 0.2398,0.05671 0.47954,0.117651 0.71933,0.184657 0.0426,0.01181 0.0805,0.02255 0.11438,0.03238 l 0.006,0.0021 c 0.25667,0.07306 0.51238,0.151496 0.76688,0.236334 l 0.007,0.0021 c 0.0303,0.01001 0.053,0.01834 0.0599,0.02067 l 0.003,7.06e-4 0.003,7.06e-4 c 0.26329,0.08914 0.5252,0.183934 0.78548,0.284565 l 0.007,0.0028 0.006,0.0028 c 0.0127,0.0051 0.0326,0.01239 0.0551,0.02136 l 0.008,0.0035 c 0.24948,0.09791 0.49724,0.20083 0.74276,0.30937 h 7.1e-4 c 0.0471,0.02084 0.0861,0.03892 0.11851,0.05374 l 0.004,0.0021 c 0.21959,0.09923 0.4421,0.203539 0.66559,0.315571 l 0.003,0.0014 c 0.0808,0.04021 0.14729,0.07494 0.19913,0.101286 l 0.003,0.0021 0.003,0.0014 c 0.1821,0.09397 0.36813,0.192739 0.55604,0.297656 l 0.002,7.06e-4 c 0.11555,0.06437 0.22014,0.125911 0.3142,0.180523 l 7e-4,7.05e-4 h 7.1e-4 c 0.13493,0.07859 0.27621,0.161848 0.42168,0.252182 l 0.004,0.0028 c 0.15045,0.09286 0.29406,0.185877 0.43064,0.275608 h 7.1e-4 v 7.05e-4 c 0.085,0.05598 0.18084,0.118375 0.28456,0.189481 0.18528,0.126113 0.36224,0.253418 0.5333,0.37896 l 0.001,7.06e-4 10e-4,0.0014 c 0.0442,0.0326 0.10025,0.073 0.16606,0.122645 l 0.002,0.0014 c 0.20519,0.154319 0.40515,0.312472 0.60082,0.472666 0.0282,0.02248 0.0584,0.04645 0.093,0.07579 0.20674,0.171024 0.40928,0.346802 0.60771,0.52641 0.002,0.0021 0.0297,0.02437 0.0786,0.07166 0.20344,0.185484 0.40193,0.374394 0.59463,0.566374 l 7e-4,7.05e-4 0.031,0.03169 h 7e-4 c 0.19774,0.198114 0.38928,0.399906 0.57671,0.604959 l 0.003,0.0035 0.003,0.0028 c 0.0143,0.01581 0.0334,0.03704 0.0572,0.06339 l 6.9e-4,7.06e-4 c 0.17293,0.191196 0.34038,0.385279 0.50367,0.581532 l 6.9e-4,7.05e-4 c 0.0429,0.05163 0.0818,0.09899 0.11713,0.141938 l 0.002,0.0035 0.003,0.0028 c 0.13766,0.169377 0.27386,0.342596 0.40859,0.52021 l 0.002,0.0021 10e-4,0.0021 c 0.0654,0.08698 0.12967,0.17424 0.19362,0.261827 l 10e-4,0.0014 c 0.10068,0.137584 0.20239,0.27947 0.30316,0.425814 l 6.9e-4,0.0014 c 0.0989,0.143265 0.1915,0.283818 0.28043,0.420302 l 6.9e-4,7.06e-4 c 0.059,0.09076 0.12487,0.191059 0.19361,0.30179 l 0.003,0.0041 c 0.12508,0.200137 0.24298,0.399919 0.35622,0.597379 l 0.002,0.0035 c 0.0243,0.04208 0.0554,0.09468 0.0909,0.158475 l 10e-4,0.0028 c 0.14638,0.259793 0.28448,0.521791 0.41617,0.784792 l -0.0124,-0.0248 c -0.0145,-0.02743 -0.0112,-0.02151 0.01,0.01791 l 0.0234,0.04479 0.02,0.04616 -0.0269,-0.05719 c 0.4176,0.836702 0.77523,1.70825 1.0666,2.610694 l 0.001,0.0041 c -2.2e-4,-9.28e-4 0.006,0.0154 0.0193,0.05788 v 6.88e-4 c 0.077,0.240488 0.14359,0.475148 0.20589,0.700398 l 6.9e-4,0.0014 c 0.014,0.05052 0.0381,0.127714 0.0661,0.234266 v 6.88e-4 c 0.048,0.181888 0.0836,0.343677 0.11645,0.483002 v 6.88e-4 c 0.032,0.136133 0.0708,0.291836 0.10748,0.467845 v 6.88e-4 6.88e-4 c 0.0232,0.111848 0.0375,0.197752 0.0489,0.257006 v 6.88e-4 c 0.0435,0.224563 0.0869,0.456929 0.12471,0.698667 l 6.9e-4,0.0055 0.001,0.0055 c 0.007,0.04634 0.009,0.06657 0.009,0.06821 0.14095,0.93412 0.20946,1.869478 0.20946,2.800173 0,-0.07095 0,-0.06769 0,0.01102 v 77.801279 c 0,10.40924 -8.46472,18.87361 -18.87361,18.87361 z m 0,-2.46944 c 9.074327,0 16.404167,-7.32949 16.404167,-16.40417 V 60.437982 c 0,0.07095 0,0.06769 0,-0.01102 0,-0.809909 -0.0597,-1.622224 -0.1819,-2.432237 v -0.0021 l -6.9e-4,-0.0021 c -0.006,-0.04168 -0.008,-0.05575 -0.008,-0.06132 -0.0306,-0.195476 -0.0684,-0.399166 -0.10955,-0.611849 v -6.88e-4 c -0.0196,-0.101599 -0.0321,-0.177283 -0.042,-0.22531 -0.024,-0.11514 -0.0574,-0.249706 -0.0937,-0.403765 l 6.9e-4,6.88e-4 c -0.0383,-0.162464 -0.0704,-0.303333 -0.10129,-0.420302 v -6.88e-4 -6.88e-4 c -0.0105,-0.0398 -0.031,-0.10781 -0.0579,-0.204638 h -6.9e-4 v -6.88e-4 c -0.059,-0.213176 -0.11677,-0.416548 -0.17777,-0.607026 0.002,0.0074 -0.003,-0.0083 -0.0165,-0.04892 l -6.8e-4,-0.0021 -6.9e-4,-0.0021 c -0.25298,-0.784177 -0.56339,-1.541532 -0.92673,-2.269629 -1.4e-4,-2.66e-4 -5.6e-4,-4.23e-4 -6.9e-4,-7.05e-4 l -0.006,-0.01171 -0.003,-0.0062 -0.003,-0.0069 c -0.11621,-0.232093 -0.23565,-0.458845 -0.36035,-0.680062 l -0.002,-0.0035 -0.002,-0.0035 c -0.0183,-0.03298 -0.0441,-0.07695 -0.0765,-0.132981 l -6.9e-4,-0.0014 -6.8e-4,-0.0021 c -0.10337,-0.180309 -0.20749,-0.354574 -0.31282,-0.522966 l -6.9e-4,-0.0021 -10e-4,-0.0021 c -0.0487,-0.07863 -0.10521,-0.165477 -0.16743,-0.261139 -0.0834,-0.127908 -0.16486,-0.25034 -0.2446,-0.365869 v -7.05e-4 l -7e-4,-7.06e-4 c -0.0841,-0.122187 -0.17262,-0.245291 -0.2639,-0.370004 v -7.05e-4 l -7e-4,-7.06e-4 c -0.0577,-0.07911 -0.11527,-0.157347 -0.17364,-0.234955 -0.11481,-0.151263 -0.2339,-0.301652 -0.35553,-0.451308 -0.038,-0.04617 -0.0729,-0.08851 -0.10473,-0.126779 -0.14392,-0.172944 -0.28919,-0.341136 -0.43684,-0.504362 v -7.06e-4 h -7.1e-4 c -0.0153,-0.01697 -0.0349,-0.0391 -0.0593,-0.06615 -0.1635,-0.178704 -0.32886,-0.351963 -0.49678,-0.520209 l -0.0289,-0.02894 c -0.17777,-0.177068 -0.35741,-0.348726 -0.53882,-0.513319 l -0.0145,-0.01309 -0.006,-0.0048 -0.008,-0.0069 -0.007,-0.0062 c -0.17985,-0.163111 -0.36216,-0.321353 -0.54708,-0.474045 l -0.006,-0.0048 -0.006,-0.0055 c -0.011,-0.0093 -0.0265,-0.02173 -0.0469,-0.0379 l -0.007,-0.0055 -0.007,-0.0055 c -0.1734,-0.14197 -0.34716,-0.279685 -0.52227,-0.411345 l -0.001,-7.06e-4 -7e-4,-7.05e-4 c -0.0369,-0.02784 -0.0863,-0.06356 -0.14676,-0.108176 -0.15673,-0.11499 -0.30993,-0.22473 -0.45958,-0.326595 l -0.002,-0.0014 -0.001,-0.0014 c -0.0723,-0.04965 -0.1557,-0.103621 -0.24942,-0.165364 -0.12902,-0.08476 -0.25358,-0.165183 -0.37345,-0.23909 l -10e-4,-0.0014 -0.002,-7.06e-4 c -0.11402,-0.07088 -0.23618,-0.143285 -0.36518,-0.218419 -0.10165,-0.05903 -0.1934,-0.112707 -0.2756,-0.158474 l -7.1e-4,-7.05e-4 h -7.1e-4 c -0.15503,-0.08659 -0.3171,-0.172727 -0.48575,-0.259761 -0.0713,-0.03629 -0.13064,-0.06716 -0.1757,-0.08957 l -0.002,-7.06e-4 -0.002,-0.0014 c -0.18715,-0.0939 -0.3812,-0.184817 -0.58222,-0.275608 l -0.003,-0.0014 -0.002,-7.05e-4 c -0.0396,-0.01807 -0.0719,-0.03323 -0.0965,-0.0441 -0.21459,-0.09486 -0.43207,-0.185491 -0.65319,-0.272162 l -0.004,-0.0014 -0.004,-0.0014 c -0.0114,-0.0046 -0.0302,-0.01228 -0.0496,-0.01998 -2e-4,-7.7e-5 -5e-4,7.7e-5 -7.1e-4,0 -0.22495,-0.08696 -0.45376,-0.170022 -0.68626,-0.248736 -0.0265,-0.0089 -0.0457,-0.01527 -0.0496,-0.01653 l -0.003,-7.05e-4 -0.003,-0.0014 c -0.22094,-0.07376 -0.4453,-0.142617 -0.67317,-0.207395 l -0.003,-0.0014 -0.003,-7.06e-4 c -0.0353,-0.01023 -0.0653,-0.01889 -0.0916,-0.02618 l -0.001,-7.06e-4 h -0.001 c -0.20542,-0.05744 -0.41454,-0.111005 -0.627,-0.16123 h -7.1e-4 l -7e-4,-7.06e-4 c -0.0561,-0.01334 -0.11777,-0.027 -0.18397,-0.04203 l 0.004,0.0014 c -0.1815,-0.04052 -0.36266,-0.07839 -0.54432,-0.112999 -2.2e-4,-4.1e-5 -4.6e-4,4.1e-5 -7.1e-4,0 -9.2e-4,-1.77e-4 -0.002,-5.3e-4 -0.003,-7.06e-4 -0.0999,-0.01872 -0.20151,-0.03687 -0.30455,-0.05443 -0.14603,-0.02455 -0.28856,-0.04726 -0.42719,-0.06683 h -10e-4 l -0.001,-7.06e-4 c -0.14873,-0.02139 -0.30226,-0.04034 -0.46026,-0.05857 -0.10467,-0.01175 -0.2006,-0.02284 -0.28664,-0.03101 h -7e-4 -10e-4 c -0.20866,-0.02015 -0.41909,-0.03599 -0.632517,-0.04823 -0.06176,-0.0035 -0.104103,-0.0065 -0.129536,-0.0076 h -0.0048 l -0.0041,-7.06e-4 c -1.088013,-0.05417 -2.185746,-6.7e-4 -3.278352,0.166743 l -0.01309,0.0021 -0.009,7.06e-4 c -8.82e-4,1.39e-4 -0.0019,5.64e-4 -0.0028,7.06e-4 0.0026,-3.49e-4 -0.0052,4.23e-4 -0.0021,0 -0.20927,0.0325 -0.425463,0.0724 -0.649056,0.116444 l -0.0035,7.05e-4 -0.0035,7.06e-4 c -0.08831,0.01689 -0.147598,0.0268 -0.174321,0.03238 -0.133415,0.02779 -0.282012,0.06351 -0.445107,0.102664 h -0.0014 l -7.05e-4,7.05e-4 c -0.148199,0.03532 -0.273357,0.06297 -0.375516,0.08957 l -0.0014,7.06e-4 c -0.0011,2.88e-4 -0.003,3.88e-4 -0.0041,7.05e-4 -0.05898,0.01589 -0.138351,0.03999 -0.241846,0.0689 h -7.05e-4 c -0.201901,0.05626 -0.392901,0.111044 -0.571886,0.168121 l -0.0028,7.05e-4 -0.0035,0.0014 c 0.0079,-0.0025 -0.01301,0.0048 -0.06201,0.02136 l -0.0069,0.0021 -0.0069,0.0021 c -0.77483,0.251065 -1.524359,0.558525 -2.244824,0.917773 l -0.07786,0.03927 -0.0069,0.0021 -79.799435,39.763292 C 3.4349046,89.602859 0.14372081,99.431989 4.1905722,107.55363 c 2.8743803,5.7688 8.6721988,9.09229 14.6960868,9.09229 2.456953,0 4.94913,-0.55286 7.302225,-1.7253 L 82.343251,86.940243 v 51.299017 c 0,9.0747 7.32946,16.40417 16.404167,16.40417 z"></path>
  <path class="color" d="M 98.74774,36.512507 H 44.387861 c -9.741606,0 -17.638889,-7.897283 -17.638889,-17.638889 0,-9.7416048 7.897283,-17.638888 17.638889,-17.638888 H 98.74774 c 9.74161,0 17.63889,7.8972832 17.63889,17.638888 0,9.741606 -7.89728,17.638889 -17.63889,17.638889" fill="#ff5050"></path>
  <path class="color" fill="#ff5050" d="m 44.387578,37.747229 c -10.408909,0 -18.87361,-8.464699 -18.87361,-18.873611 C 25.513968,8.4647068 33.978669,7.805e-6 44.387578,7.805e-6 H 98.74774 c 10.40891,0 18.87361,8.464698995 18.87361,18.873610195 0,10.408912 -8.4647,18.873611 -18.87361,18.873611 z m 0,-2.469444 H 98.74774 c 9.0743,0 16.40417,-7.329867 16.40417,-16.404167 0,-9.0742985 -7.32987,-16.4041658 -16.40417,-16.4041658 H 44.387578 c -9.074298,0 -16.404166,7.3298673 -16.404166,16.4041658 0,9.0743 7.329868,16.404167 16.404166,16.404167 z"></path>
  <path d="m 62.02685,18.873611 c 0,9.741605 -7.897283,17.638889 -17.638888,17.638889 -9.741606,0 -17.638889,-7.897284 -17.638889,-17.638889 0,-9.7416053 7.897283,-17.6388885 17.638889,-17.6388885 9.741605,0 17.638888,7.8972832 17.638888,17.6388885" style="fill:#ffffff;" id="path490"></path>
  <path class="color" fill="#ff5050" d="m 44.387962,37.747222 c -10.408912,0 -18.873611,-8.464699 -18.873611,-18.873611 C 25.514351,8.4646993 33.97905,3.05e-7 44.387962,3.05e-7 c 10.408911,0 18.87361,8.464698995 18.87361,18.873610695 0,10.408912 -8.464699,18.873611 -18.87361,18.873611 z m 0,-2.469445 c 9.074299,0 16.404166,-7.329867 16.404166,-16.404166 0,-9.074299 -7.329867,-16.4041663 -16.404166,-16.4041663 -9.0743,0 -16.404167,7.3298673 -16.404167,16.4041663 0,9.074299 7.329867,16.404166 16.404167,16.404166 z"></path>
  <path d="m 116.38664,18.873611 c 0,9.741605 -7.89728,17.638889 -17.638889,17.638889 -9.741605,0 -17.638888,-7.897284 -17.638888,-17.638889 0,-9.7416053 7.897283,-17.6388885 17.638888,-17.6388885 9.741609,0 17.638889,7.8972832 17.638889,17.6388885" style="fill:#ffffff;" id="path498"></path>
  <path class="color" fill="#ff5050" d="m 98.747751,37.747222 c -10.408911,0 -18.87361,-8.464699 -18.87361,-18.873611 C 79.874141,8.4646993 88.33884,3.05e-7 98.747751,3.05e-7 c 10.408909,0 18.873609,8.464698995 18.873609,18.873610695 0,10.408912 -8.4647,18.873611 -18.873609,18.873611 z m 0,-2.469445 c 9.074299,0 16.404169,-7.329867 16.404169,-16.404166 0,-9.074299 -7.32987,-16.4041663 -16.404169,-16.4041663 -9.074299,0 -16.404166,7.3298673 -16.404166,16.4041663 0,9.074299 7.329867,16.404166 16.404166,16.404166 z"></path>
  <path class="color" d="m 36.5125,100.23814 c 0,-9.741605 -7.897283,-17.638888 -17.638888,-17.638888 -9.7416058,0 -17.638889,7.897283 -17.638889,17.638888 0,9.74161 7.8972832,17.63889 17.638889,17.63889 9.741605,0 17.638888,-7.89728 17.638888,-17.63889" fill="#ff5050"></path>
  <path class="color" fill="#ff5050" d="M 18.873612,119.11175 C 8.4646998,119.11175 8.0500001e-7,110.64705 8.0500001e-7,100.23814 8.0500001e-7,89.829228 8.4646998,81.364529 18.873612,81.364529 c 10.408911,0 18.87361,8.464699 18.87361,18.873611 0,10.40891 -8.464699,18.87361 -18.87361,18.87361 z m 0,-2.46944 c 9.074299,0 16.404166,-7.32987 16.404166,-16.40417 0,-9.074299 -7.329867,-16.404166 -16.404166,-16.404166 -9.0742995,0 -16.4041668,7.329867 -16.4041668,16.404166 0,9.0743 7.3298673,16.40417 16.4041668,16.40417 z"></path>
  <path d="M 170.16614,155.87848 H 98.748044 c -9.741958,0 -17.638888,-7.89728 -17.638888,-17.63889 0,-9.7416 7.89693,-17.63889 17.638888,-17.63889 h 71.418096 c 9.74161,0 17.63889,7.89729 17.63889,17.63889 0,9.74161 -7.89728,17.63889 -17.63889,17.63889" style="fill:#ffffff;" id="path522"></path>
  <path class="color" fill="#ff5050" d="m 98.747935,157.1132 c -10.409241,0 -18.873611,-8.46473 -18.873611,-18.87361 0,-10.40888 8.46437,-18.87361 18.873611,-18.87361 h 71.418205 c 10.40891,0 18.87361,8.4647 18.87361,18.87361 0,10.40891 -8.4647,18.87361 -18.87361,18.87361 z m 0,-2.46944 h 71.418205 c 9.0743,0 16.40417,-7.32987 16.40417,-16.40417 0,-9.0743 -7.32987,-16.40416 -16.40417,-16.40416 H 98.747935 c -9.074675,0 -16.404166,7.32983 -16.404166,16.40416 0,9.07433 7.329491,16.40417 16.404166,16.40417 z"></path>
  <path class="color" d="m 116.38664,138.23961 c 0,9.74161 -7.89728,17.63889 -17.638889,17.63889 -9.741605,0 -17.638888,-7.89728 -17.638888,-17.63889 0,-9.74161 7.897283,-17.63889 17.638888,-17.63889 9.741609,0 17.638889,7.89728 17.638889,17.63889" fill="#ff5050"></path>
  <path class="color" fill="#ff5050" d="m 98.747751,157.11322 c -10.408911,0 -18.87361,-8.4647 -18.87361,-18.87361 0,-10.40891 8.464699,-18.87361 18.87361,-18.87361 10.408909,0 18.873609,8.4647 18.873609,18.87361 0,10.40891 -8.4647,18.87361 -18.873609,18.87361 z m 0,-2.46944 c 9.074299,0 16.404169,-7.32987 16.404169,-16.40417 0,-9.0743 -7.32987,-16.40417 -16.404169,-16.40417 -9.074299,0 -16.404166,7.32987 -16.404166,16.40417 0,9.0743 7.329867,16.40417 16.404166,16.40417 z"></path>
</svg>